<svg xmlns="http://www.w3.org/2000/svg" width="1200" height="630" viewBox="0 0 1200 630">
  <defs>
    <linearGradient id="bg_beginner-roadmap-learn-ai" x1="0%" y1="0%" x2="100%" y2="100%">
      <stop offset="0%" style="stop-color:#F59E0B"/>
      <stop offset="100%" style="stop-color:#10B981"/>
    </linearGradient>
    <pattern id="dots_beginner-roadmap-learn-ai" x="0" y="0" width="40" height="40" patternUnits="userSpaceOnUse">
      <circle cx="20" cy="20" r="1.5" fill="white" opacity="0.15"/>
    </pattern>
  </defs>
  <rect width="1200" height="630" fill="url(#bg_beginner-roadmap-learn-ai)"/>
  <rect width="1200" height="630" fill="url(#dots_beginner-roadmap-learn-ai)"/>
  <!-- Decorative circles -->
  <circle cx="100" cy="100" r="200" fill="white" opacity="0.05"/>
  <circle cx="1100" cy="500" r="250" fill="white" opacity="0.05"/>
  <circle cx="600" cy="315" r="150" fill="white" opacity="0.03"/>
  <!-- Neural network pattern -->
  <g opacity="0.08">
    <line x1="100" y1="200" x2="300" y2="150" stroke="white" stroke-width="2"/>
    <line x1="300" y1="150" x2="500" y2="250" stroke="white" stroke-width="2"/>
    <line x1="100" y1="200" x2="200" y2="350" stroke="white" stroke-width="2"/>
    <line x1="200" y1="350" x2="500" y2="250" stroke="white" stroke-width="2"/>
    <circle cx="100" cy="200" r="8" fill="white"/>
    <circle cx="300" cy="150" r="10" fill="white"/>
    <circle cx="500" cy="250" r="8" fill="white"/>
    <circle cx="200" cy="350" r="8" fill="white"/>
    <line x1="700" y1="100" x2="900" y2="180" stroke="white" stroke-width="2"/>
    <line x1="900" y1="180" x2="1050" y2="120" stroke="white" stroke-width="2"/>
    <line x1="700" y1="100" x2="750" y2="250" stroke="white" stroke-width="2"/>
    <circle cx="700" cy="100" r="8" fill="white"/>
    <circle cx="900" cy="180" r="10" fill="white"/>
    <circle cx="1050" cy="120" r="8" fill="white"/>
    <circle cx="750" cy="250" r="8" fill="white"/>
  </g>
  <!-- Emoji -->
  <text x="600" y="260" text-anchor="middle" font-size="72">🗺️</text>
  <!-- Title -->
  <text x="600" y="360" text-anchor="middle" font-family="-apple-system, BlinkMacSystemFont, 'Segoe UI', sans-serif" font-size="42" font-weight="700" fill="white">Learn AI Roadmap</text>
  <!-- Subtitle -->
  <text x="600" y="400" text-anchor="middle" font-family="-apple-system, BlinkMacSystemFont, 'Segoe UI', sans-serif" font-size="20" fill="white" opacity="0.8">Cortex — Start Smarter with AI</text>
</svg>